<svg xmlns="http://www.w3.org/2000/svg" xmlns:xlink="http://www.w3.org/1999/xlink" width="500" zoomAndPan="magnify" viewBox="0 0 375 374.999991" height="500" preserveAspectRatio="xMidYMid meet" version="1.0"><defs><clipPath id="id1"><path d="M 36 17.386719 L 87 17.386719 L 87 85 L 36 85 Z M 36 17.386719 " clip-rule="nonzero"/></clipPath></defs><path fill="#1527cd" d="M 57.765625 84.441406 C 56.214844 86.242188 54.699219 88.085938 53.21875 89.976562 C 70.148438 102.9375 80.363281 102.703125 80.363281 102.703125 C 71 97.433594 63.601562 91.160156 57.765625 84.441406 Z M 57.765625 84.441406 " fill-opacity="1" fill-rule="nonzero"/><path fill="#1527cd" d="M 143.433594 102.773438 C 175.363281 121.003906 174.203125 150.597656 174.203125 150.597656 C 199.964844 117.410156 224.785156 113.546875 224.785156 113.546875 C 224.785156 113.546875 228.835938 138.34375 205.324219 173.160156 C 205.324219 173.160156 233.074219 162.847656 260.335938 187.523438 C 265.542969 192.238281 288.507812 207.507812 294.429688 211.289062 L 320.089844 227.667969 C 337.894531 167.285156 317.015625 99.644531 263.152344 60.597656 C 209.289062 21.542969 138.523438 22.746094 86.699219 58.457031 L 110.25 77.75 C 115.683594 82.210938 137.332031 99.289062 143.433594 102.773438 Z M 143.433594 102.773438 " fill-opacity="1" fill-rule="nonzero"/><path fill="#1527cd" d="M 290.28125 272.632812 C 268.429688 273.757812 247.210938 265.078125 231.945312 249.402344 L 225.050781 242.320312 C 228.8125 250.914062 233.546875 259.050781 239.171875 266.5625 L 239.402344 266.871094 C 239.402344 266.871094 197.164062 251.25 179.121094 230.023438 C 176.640625 227.109375 174.542969 224.398438 172.769531 221.894531 L 179.921875 266.75 L 105.121094 278.683594 L 93.1875 203.863281 L 138.03125 196.707031 C 135.101562 195.800781 131.875 194.648438 128.335938 193.203125 C 102.554688 182.65625 74.566406 147.363281 74.566406 147.363281 L 74.929688 147.488281 C 83.816406 150.496094 93.015625 152.464844 102.355469 153.367188 L 93.480469 149.019531 C 73.835938 139.382812 58.988281 121.914062 53.253906 100.792969 C 53.105469 100.253906 52.964844 99.714844 52.832031 99.167969 C 52.054688 96.054688 51.691406 93.785156 51.53125 92.164062 C 50.902344 92.996094 50.277344 93.828125 49.664062 94.675781 C 0.113281 163.054688 15.363281 258.660156 83.726562 308.222656 C 152.082031 357.773438 247.664062 342.523438 297.210938 274.144531 C 297.824219 273.296875 298.417969 272.445312 299.015625 271.585938 C 297.425781 271.941406 295.15625 272.300781 291.953125 272.53125 C 291.398438 272.570312 290.835938 272.605469 290.28125 272.632812 Z M 290.28125 272.632812 " fill-opacity="1" fill-rule="nonzero"/><path fill="#1527cd" d="M 300.5625 269.304688 C 301.894531 267.308594 303.175781 265.296875 304.40625 263.257812 C 296.203125 259.796875 287.941406 254.722656 280.023438 247.460938 C 280.027344 247.464844 282.984375 257.242188 300.5625 269.304688 Z M 300.5625 269.304688 " fill-opacity="1" fill-rule="nonzero"/><path fill="#1527cd" d="M 320.089844 227.675781 C 316.476562 239.9375 311.261719 251.898438 304.410156 263.265625 C 340.207031 278.371094 374.859375 262.648438 374.859375 262.648438 Z M 320.089844 227.675781 " fill-opacity="1" fill-rule="nonzero"/><path fill="#1527cd" d="M 302.328125 270.492188 C 301.726562 270.09375 301.136719 269.699219 300.5625 269.304688 C 300.050781 270.070312 299.539062 270.828125 299.015625 271.585938 C 301.523438 271.03125 302.328125 270.492188 302.328125 270.492188 Z M 302.328125 270.492188 " fill-opacity="1" fill-rule="nonzero"/><path fill="#1527cd" d="M 51.539062 88.664062 C 51.539062 88.664062 51.277344 89.597656 51.53125 92.15625 C 52.089844 91.421875 52.648438 90.699219 53.21875 89.972656 C 52.667969 89.554688 52.105469 89.117188 51.539062 88.664062 Z M 51.539062 88.664062 " fill-opacity="1" fill-rule="nonzero"/><g clip-path="url(#id1)"><path fill="#1527cd" d="M 86.695312 58.460938 L 36.425781 17.277344 C 36.425781 17.277344 32.265625 55.117188 57.761719 84.445312 C 66.429688 74.386719 76.171875 65.714844 86.695312 58.460938 Z M 86.695312 58.460938 " fill-opacity="1" fill-rule="nonzero"/></g></svg>